<svg width="32" height="32" viewBox="0 0 32 32" fill="none" xmlns="http://www.w3.org/2000/svg">
  <defs>
    <linearGradient id="gradient" x1="0%" y1="0%" x2="100%" y2="100%">
      <stop offset="0%" style="stop-color:#2563eb;stop-opacity:1" />
      <stop offset="100%" style="stop-color:#9333ea;stop-opacity:1" />
    </linearGradient>
  </defs>
  <rect width="32" height="32" rx="7" fill="url(#gradient)" />
  <path d="M16 8C17.1046 8 18 8.89543 18 10V16C18 17.1046 17.1046 18 16 18C14.8954 18 14 17.1046 14 16V10C14 8.89543 14.8954 8 16 8Z" fill="white"/>
  <path d="M12 14V16C12 19.3137 14.6863 22 18 22H20V24H18C13.5817 24 10 20.4183 10 16V14H12Z" fill="white"/>
  <path d="M20 14H22V16C22 20.4183 18.4183 24 14 24H12V22H14C17.3137 22 20 19.3137 20 16V14Z" fill="white"/>
</svg>
